<?xml version="1.0" encoding="utf-8"?>
<!-- Generator: Adobe Illustrator 20.0.0, SVG Export Plug-In . SVG Version: 6.00 Build 0)  -->
<svg version="1.1" id="Layer_1" xmlns="http://www.w3.org/2000/svg" xmlns:xlink="http://www.w3.org/1999/xlink" x="0px" y="0px"
	 viewBox="0 0 308.4 445.5" style="enable-background:new 0 0 308.4 445.5;" xml:space="preserve">
<style type="text/css">
	.st0{fill:#FFFFFF;stroke:#000000;stroke-miterlimit:10;}
	.st1{fill:#00A859;}
	.st2{fill:none;stroke:#E02928;stroke-miterlimit:10;}
	.st3{fill:#FFFFFF;}
</style>
<path class="st0" d="M0,151.9"/>
<image style="display:none;overflow:visible;enable-background:new    ;" width="290" height="366" xlink:href="470DD919.jpeg"  transform="matrix(0.9999 0 0 0.9999 20.3846 92.367)">
</image>
<path class="st1" d="M202.7,438c0,0,7,9,44.5,4.5s57.9-56.5,59.9-74.7c0.7-10.8-1.4-27.4-6.9-41.3c-21.8-35.3-42.3-49.3-102.6-75.3
	c0,0,62.8,34.8,85.8,65.1c10.8,16.5,13.6,20.8,14.8,38.9c1.5,22.9-3.3,42.9-24.9,65.1C246.4,442.2,196.8,433.9,202.7,438z"/>
<path class="st2" d="M203.4,436.4"/>
<path class="st1" d="M167.1,443.7c-1.2-6.7,5.3-13.6,8.8-20.1c5.3-11.3,18.5-61.8,22-90.7c1.5-12.2,0.7-27.8-2.5-41.8
	c-4.5-19.3-12.3-35.7-12.5-37.5c-0.4-3.1-19.3-39.5-19.3-39.5c59.3,71,39.8,101.3,35.6,145.9c-4.2,44.7-28.3,83.7-28.3,83.7
	S168.3,446.3,167.1,443.7z"/>
<path class="st1" d="M195.4,291.2"/>
<path class="st1" d="M140.1,444.9c0,0,21.3-30.7-8.8-75c-28.7-54.7-44.2-96.2-31.2-141.7c-15.3,18.2-14.8,29.5-14.8,42.8
	c0,30.9,34.9,82.9,43,102.2c17.7,30.4,10.4,65.9,9.8,69.9S140.1,444.9,140.1,444.9z"/>
<path class="st1" d="M65.1,372.2c10.3,6.3,30.8-3.8,27.5-23c-5.8-18.5-54.7-14.5-60,16.2c-7.5,27.5,49.2,81.7,100.8,65.8
	c10.3-4.8-21.5-8.3-21.5-8.3s-67.6-4.6-73.6-46.5c0-2.6-0.3-9.9,6-20.7c22.2-22.2,35.1-10.8,35.6-4.6
	C80.4,357.4,82.4,364.2,65.1,372.2z"/>
<path class="st1" d="M149.1,201.7c12.5-11.5,24.9-10.8,29.9-20.7s7.1-24,5.6-31.3c-1.5-7.3-4.1,6.6-4.1,6.6s0,14.4-5.9,20.8
	c-5.9,6.4-7.1,8.3-13.4,12S149.9,196.8,149.1,201.7z"/>
<path class="st1" d="M145.8,120.3c-0.3-2.9-5.8-21.1-7.6-20.1s-8.8,8.1-11.5,11.6c-2.8,3.5-3,6.6-3.5,8c-0.5,1.3-3.5,5-2,5.6
	c1.5,0.6,25.3-0.3,28.1,1.5c0.7,2.4,14.8,10.1,18.4,11.3c3.6,1.2,15,3.8,12.4,0.8c-1.5-1.7-7.7-4.1-14-6.7
	C155.4,126.3,145.8,120.3,145.8,120.3z"/>
<path class="st1" d="M112.9,128.2c4-2.7,3.5-6.7,3.5-6.7c-3-9.2-12-19.2-12-19.2s-20,15-28,46s-4,42,3,49s20,15,22,16
	c-4-5.8-27-20-25-46c4-25,21-56,28-60C110.8,112.7,112.9,128.2,112.9,128.2z"/>
<path class="st1" d="M74.4,201.4c0,0,0.1-2-3.3-2.9c-3.4-0.9-13.9,17.3-14.5,19.5c-0.6,2.2-2.5,12.8-0.9,15s1.4,1.9,1.5,0
	s1.4-15.4,8.1-21.1S74.8,203.7,74.4,201.4z"/>
<path class="st1" d="M66.9,184.5c-3.5-3.6-12.5,2.6-18.7,9.1S28,220.1,30.6,223.9c19-31.8,32.1-29.6,36.1-35.9
	C66.7,188,67.5,185.6,66.9,184.5z"/>
<path class="st1" d="M63.9,167.4c-1.7,3.1-9.6,3.6-17,7.3c-3.3,1.7-21,11.4-23,13.2c9.7-11.3,30.8-23,33.5-23.8
	c2.7-0.8,4.7-0.7,5.8,0C64.4,164.7,63.9,167.4,63.9,167.4z"/>
<path class="st1" d="M137.7,149.4h9.5c2.2-1.6-1.2-5.3-4.8-5.2c-3.6,0.1-13.6,5.9-13.8,6.8s2.8,1.5,4.1,0.9
	C134.1,151.4,135.9,149.7,137.7,149.4z"/>
<path class="st3" d="M137,109.2c0,0-12.3,11.2-8.4,11.1c3.9-0.1,11.1,1.7,13.3,0C144.1,118.6,137,109.2,137,109.2z"/>
</svg>
